# xmcd
#
# Track frame offsets:
#	150
#	18801
#	35317
#	55180
#	75486
#	93799
#	113436
#	132467
#	144566
#	158258
#
# Disc length: 2356 seconds
#
# Revision: 0
# Processed by: cddbd v1.4b42PL1 Copyright (c) Steve Scherf et al.
# Submitted via: EasyCDDAExtractor 4.5.0.2
#
DISCID=6609320a
DTITLE=Circuit riders - deed of trust
DYEAR=2000
DGENRE=Country
TTITLE0=high lonesome road
TTITLE1=brown eyed biloxi queen
TTITLE2=time´s up
TTITLE3=Buffalo creek bridge
TTITLE4=Anna Lee
TTITLE5=depending on you
TTITLE6=ballad of Caleb james
TTITLE7=look´s aren´t everything
TTITLE8=sweet sad eyes Susanna blue
TTITLE9=midnight traffic
EXTD=
EXTT0=
EXTT1=
EXTT2=
EXTT3=
EXTT4=
EXTT5=
EXTT6=
EXTT7=
EXTT8=
EXTT9=
PLAYORDER=
